# xmcd
#
# Track frame offsets: 
#        150
#        24190
#        57525
#        84910
#        102208
#        139478
#        177393
#        192985
#
# Disc length: 2842 seconds
#
# Revision: 3
# Processed by: cddbd v1.5.2PL0 Copyright (c) Steve Scherf et al.
# Submitted via: ExactAudioCopy v1.0b3
#
DISCID=680b1808
DTITLE=hoa tau - Angel Dance 4 (Lambada, Rumba, Chacha)
DYEAR=1990
DGENRE=Instrumental
TTITLE0=Vu dieu lambada (lambada)
TTITLE1=LK De quen con tim, Neu xa nhau (rumba)
TTITLE2=LK Chuyen tinh yeu, Tinh nghia doi ta chi the thoi (chacha)
TTITLE3=Tan tac (bebop)
TTITLE4=LK Ha trang, Nua hon thuong dau (slow)
TTITLE5=LK Truc dao, Ao anh, Pho dem (rumba)
TTITLE6=Nhung buoc chan am tham (chacha)
TTITLE7=Tango xanh (tango)
EXTD=
EXTT0=
EXTT1=
EXTT2=
EXTT3=
EXTT4=
EXTT5=
EXTT6=
EXTT7=
PLAYORDER=
